<svg id="ex7bQa86kcp1" xmlns="http://www.w3.org/2000/svg" xmlns:xlink="http://www.w3.org/1999/xlink" viewBox="0 0 111.966 111.966" shape-rendering="geometricPrecision" text-rendering="geometricPrecision"><path d="M69.968,111.966h15.359c5.987,0,10.841-4.857,10.841-10.842v-52.49h6.866c.014.001.03,0,.039,0c2.495,0,4.517-2.022,4.517-4.518-.002-1.554-.785-2.926-1.978-3.737L58.873,1.06c-1.683-1.413-4.136-1.413-5.817,0L5.986,40.658C4.533,41.88,4,43.88,4.65,45.663c.651,1.783,2.346,2.971,4.245,2.971h6.867v52.489c0,5.988,4.855,10.842,10.842,10.842h15.358" fill="#e76f51"/></svg>
